<svg id="2278d0e4-8413-45cf-830b-c647e734fb3c" data-name="Calque 1" xmlns="http://www.w3.org/2000/svg" viewBox="0 0 1187 500"><title>logo-salti</title><g id="78be1324-6b2c-4294-aa5b-537cbb235b37" data-name="logo-salti"><path d="M1185.84,397.54c2.11,10-4.22,18.41-14.78,18.41H15.32C4.76,416-1.57,407.53.54,397.54L71.78,96.19c2.64-10,12.67-18.93,23.23-20L1076.6,0c10.55-1,21.11,6.83,23.22,16.83Z"/><path d="M386.84,191.91a15.07,15.07,0,0,1-12.66-6.31c-3.17-3.69-3.7-8.94-2.64-13.68L390,106.18c2.11-7.89,10-13.67,18.47-13.67h64.91a15.06,15.06,0,0,1,12.67,6.31c3.17,3.68,3.69,8.94,2.64,13.67l-18.47,65.74c-2.11,7.89-10,13.68-18.47,13.68Z" style="fill:none"/><path d="M424.31,288.68l59.11-81.52a5.84,5.84,0,0,1,5.28-2.63c2.11,0,3.16,1.05,3.16,2.63l13.72,81.52ZM534.08,154.57a28.66,28.66,0,0,0-8.44-16.31c-4.22-3.68-10-5.78-17.42-5.78-14.77,0-28,7.36-38.52,22.09L323.52,355.47h51.19l15.3-21H511.92l3.16,21h51.19ZM776.84,308.66H642.27a3.21,3.21,0,0,1-3.17-1.58c-.53-1.05,0-2.1,0-3.15l47-167.24h-47.5L590,307.61c-4.22,13.15-2.64,24.72,3.7,34.18S611.13,356,623.8,356H763.12Zm274.43-168.82c.52-2.1-.53-3.68-2.64-3.68h-43.28a5.07,5.07,0,0,0-4.75,3.68L989,180.34c-.53,2.1.53,3.68,2.64,3.68h43.28a5.07,5.07,0,0,0,4.75-3.68Zm-67,67.84h-3.69s-.53,1.58-1.06,3.69L939.91,352.31c-.52,2.11.53,3.68,2.64,3.68H989c1.06,0,2.11-1.57,2.64-3.68l39.58-140.94c.53-2.11-.53-3.69-2.64-3.69Zm-152,0h-3.69s-.53,1.58-1.06,3.69L787.92,352.31c-.52,2.11.53,3.68,2.64,3.68H837c1.06,0,2.11-1.57,2.64-3.68l39.58-140.94c.53-2.11-.52-3.69-2.64-3.69Zm144.6-67.84c.53-2.1-.52-3.68-2.63-3.68H773.15a5.07,5.07,0,0,0-4.75,3.68l-11.61,40.5c-.53,2.1.53,3.68,2.64,3.68H960.49a5.05,5.05,0,0,0,4.75-3.68ZM330.9,269.74c3.7-13.15,2.11-24.72-4.22-34.18s-15.83-14.2-28.5-14.2H186.83a2.92,2.92,0,0,1-2.64-1.58,3,3,0,0,1-.52-3.16l7.91-31c0-1.06,1.06-2.11,2.11-3.16a5.74,5.74,0,0,1,3.7-1.58H355.18l13.19-47.33h-162c-13.2,0-25.33,4.73-36.94,14.2s-19.53,23.67-23.22,37.34l-10,36.29c-3.7,13.15-2.11,23.66,4.22,33.13s16.36,14.2,29,14.2H280.77a3.35,3.35,0,0,1,3.17,2.63V274l-7.92,30c-.53,3.68-2.64,5.26-5.81,5.26H112.42L99.23,356.52H261.77c13.19,0,25.33-4.73,36.94-14.2a71.72,71.72,0,0,0,23.22-35.76Z" style="fill:#fff"/><path d="M31.5,486.72h21v11.42H17.82V435.92H31v50.8ZM72,485.58c-1.57-2.28-2.1-5.14-2.1-9.7s.53-7.42,2.1-9.71a7.34,7.34,0,0,1,6.32-3.42c3.15,0,4.73,1.14,6.31,3.42s2.1,5.14,2.1,9.71-.52,7.42-2.1,9.7A7.31,7.31,0,0,1,78.32,489C75.16,489,73.06,487.87,72,485.58Zm-2.1-30.82c-2.63,1.14-5.26,2.28-6.84,4.56a32.88,32.88,0,0,0-4.21,7.43,30.57,30.57,0,0,0,0,19.4c1,2.86,2.11,5.71,4.21,7.42a29.39,29.39,0,0,0,6.84,4.57,21.56,21.56,0,0,0,16.83,0,26.12,26.12,0,0,0,6.32-4.57,33,33,0,0,0,4.2-7.42,28.48,28.48,0,0,0,1.58-9.7,26.24,26.24,0,0,0-1.58-9.7,24,24,0,0,0-4.2-7.43c-1.58-2.28-3.69-3.42-6.32-4.56a20.33,20.33,0,0,0-8.41-1.71A18.69,18.69,0,0,0,69.9,454.76Zm49.45,0h-12.1v28a31.33,31.33,0,0,0,1,6.85,24.3,24.3,0,0,0,2.63,5.14c1,1.14,2.63,2.85,4.21,3.42a17.62,17.62,0,0,0,5.79,1.14c1.58,0,2.63-.57,3.68-.57,1-.57,2.1-.57,3.16-1.14s1.57-1.14,2.63-1.71a11.85,11.85,0,0,0,2.63-2.29l.52,2.29a2.9,2.9,0,0,0,3.16,2.28h7.36V453.62H132V485c-1.05.57-2.1,1.71-3.15,2.28a7.1,7.1,0,0,1-3.68,1.15,5,5,0,0,1-4.21-1.72,7.34,7.34,0,0,1-1.58-5.13V454.76Zm57.87,8.56a7.42,7.42,0,0,1,2.1,1.71c.53,1.14.53,2.29,1.05,2.86s.53,1.71.53,2.85H165.64a16.82,16.82,0,0,1,2.63-6.28c1-1.71,3.16-2.28,5.26-2.28A7.23,7.23,0,0,1,177.22,463.32Zm-12.1-9.13a19,19,0,0,0-6.32,4.56c-2.1,1.72-3.15,4-4.2,6.85a24.47,24.47,0,0,0-1.58,8.57,29.56,29.56,0,0,0,1.58,10.27,33.17,33.17,0,0,0,4.2,7.42c1.58,2.28,4.21,3.43,6.32,4.57a17.93,17.93,0,0,0,7.89,1.71c1.05,0,2.63-.57,4.21-.57a14.4,14.4,0,0,0,4.73-1.14,17.57,17.57,0,0,0,4.73-2.29,14.56,14.56,0,0,0,4.21-4l-3.68-4.57a2.67,2.67,0,0,0-2.1-1.14A3,3,0,0,0,183,485c-.52,0-1.05.57-2.1,1.14-.53.57-1.58.57-2.63,1.14a7.15,7.15,0,0,1-3.68.58c-2.63,0-4.74-.58-6.32-2.29s-2.63-4.56-3.15-8h25.25c.52,0,1,0,1-.57a2.2,2.2,0,0,0,.53-1.71V473a20.51,20.51,0,0,0-1.58-8.56,24.28,24.28,0,0,0-3.69-6.28,21.49,21.49,0,0,0-5.78-4,28.91,28.91,0,0,0-7.37-1.14C170.38,453.05,167.75,453.05,165.12,454.19Zm47.34.57h-12.1v28a31.33,31.33,0,0,0,1,6.85,24.3,24.3,0,0,0,2.63,5.14c1.06,1.14,2.63,2.85,4.21,3.42a17.67,17.67,0,0,0,5.79,1.14c1.58,0,2.63-.57,3.68-.57,1.05-.57,2.11-.57,3.16-1.14s1.58-1.14,2.63-1.71a11.85,11.85,0,0,0,2.63-2.29l.53,2.29a2.89,2.89,0,0,0,3.15,2.28h7.37V453.62h-12.1V485c-1.06.57-2.11,1.71-3.16,2.28a7.07,7.07,0,0,1-3.68,1.15,5,5,0,0,1-4.21-1.72,7.34,7.34,0,0,1-1.58-5.13V454.76Zm36.3,44.52h13.68v-27.4c1.58-4,4.21-5.71,7.36-5.71h3.68c.53,0,.53-.57,1.06-.57a2.05,2.05,0,0,0,.52-1.14l1.58-9.7a7,7,0,0,0-4.73-1.71c-2.63,0-4.21,1.14-6.32,2.28s-3.68,3.42-5.26,5.71l-.52-4c0-.57-.53-1.14-.53-1.71s0-1.14-.53-1.14-.52-.57-1.05-.57h-8.94v45.66ZM310.83,489a5.13,5.13,0,0,1-1.05-3.43c0-1.14,0-1.71.53-2.28a7.27,7.27,0,0,1,2.1-1.71c1-.57,2.11-.57,3.68-1.15s3.16-.57,5.79-.57v6.28A16.12,16.12,0,0,1,318.2,489a9.3,9.3,0,0,1-4.21,1.14A4.26,4.26,0,0,1,310.83,489Zm16.84,9.7h4.21v-27.4a30.76,30.76,0,0,0-1.06-6.85c-.52-2.28-1.57-4.56-3.15-5.71a46.22,46.22,0,0,0-5.26-3.42,24.82,24.82,0,0,0-6.84-1.14,27.72,27.72,0,0,0-9.47,1.71,26,26,0,0,0-8.42,5.14l2.11,4,1.58,1.72c.52.57,1.05.57,2.1.57s2.1,0,2.63-.57,1.58-.58,2.1-1.15c1.06-.57,1.58-.57,2.63-1.14a7.3,7.3,0,0,1,3.69-.57,5.75,5.75,0,0,1,4.21,1.71c1,1.15,1.57,2.86,1.57,5.71V473c-4.73,0-8.41,0-11.57,1.15a32.32,32.32,0,0,0-7.36,3.42,10,10,0,0,0-3.69,4.57,11.56,11.56,0,0,0-1.05,4.56,18,18,0,0,0,1.05,5.14,10.35,10.35,0,0,0,2.63,4,8.41,8.41,0,0,0,3.69,2.28,15,15,0,0,0,5.26.57c1.05,0,2.63-.57,3.68-.57a7.07,7.07,0,0,0,3.15-1.14l3.16-1.71a11,11,0,0,0,3.16-2.29l1,2.29a7.84,7.84,0,0,0,1.58,2.28c.52.57,1.58.57,2.63.57Zm27.88-43.95h-12.1v28a31.33,31.33,0,0,0,1.05,6.85,24.3,24.3,0,0,0,2.63,5.14c1.05,1.14,2.63,2.85,4.21,3.42a17.62,17.62,0,0,0,5.79,1.14c1.58,0,2.63-.57,3.68-.57,1.05-.57,2.1-.57,3.16-1.14s1.57-1.14,2.63-1.71a11.85,11.85,0,0,0,2.63-2.29l.52,2.29a2.9,2.9,0,0,0,3.16,2.28h7.36V453.62h-12.1V485c-1.05.57-2.1,1.71-3.15,2.28a7.1,7.1,0,0,1-3.68,1.15,5,5,0,0,1-4.21-1.72,7.34,7.34,0,0,1-1.58-5.13V454.76Zm82.59,4a11.84,11.84,0,0,0-2.63-2.28l-3.16-1.71c-1.05-.57-2.1-.57-3.68-1.14a10.76,10.76,0,0,0-4.21-.57,24.82,24.82,0,0,0-6.84,1.14,16.06,16.06,0,0,0-5.26,2.85,8.86,8.86,0,0,0-3.15,4.57,17.69,17.69,0,0,0-1,5.14,14.49,14.49,0,0,0,1,5.13c.52,1.14,1.05,2.86,2.1,3.43s1.58,1.71,3.16,2.28,2.1,1.14,3.68,1.71,2.63.57,3.68,1.14,2.11.58,3.16,1.15a7.27,7.27,0,0,1,2.1,1.71,3,3,0,0,1,1.06,2.28,2,2,0,0,0-.53,1.14c-.53.57-.53.57-1.05,1.15A4.11,4.11,0,0,1,425,489a4.43,4.43,0,0,1-2.63.57,6.23,6.23,0,0,1-3.16-.57c-.52-.57-1.58-.57-2.1-1.14s-1.05-.58-1.58-1.15a3,3,0,0,0-2.1-.57c-1.06,0-1.58,0-2.11.57-.52,0-.52.57-1.05,1.15L407.63,493a5.4,5.4,0,0,0,2.63,2.29c1.05.57,2.63,1.14,3.68,1.71,1.58.57,2.63.57,4.21,1.14a10.76,10.76,0,0,0,4.21.57,28.76,28.76,0,0,0,7.36-1.14,15.86,15.86,0,0,0,5.26-2.85,7.1,7.1,0,0,0,3.16-4.57,26,26,0,0,0,1.05-6.28,14.34,14.34,0,0,0-1.05-4.57,7.37,7.37,0,0,0-2.1-3.42,11.13,11.13,0,0,0-3.16-2.28,25.38,25.38,0,0,1-3.68-1.72c-1.58-.57-2.63-.57-3.68-1.14s-2.11-.57-3.16-1.14a7.48,7.48,0,0,1-2.11-1.71,4.55,4.55,0,0,1-1.05-2.29c0-1.14,0-2.28,1.05-2.85a7.23,7.23,0,0,1,3.69-1.14c1.05,0,1.58.57,2.63.57.52.57,1.58.57,2.1,1.14,1.05.57,1.58,1.14,2.11,1.14a1.82,1.82,0,0,0,1.57.57c.53,0,1.06-.57,1.58-.57s.53-.57,1.05-1.14Zm30,4.57a7.42,7.42,0,0,1,2.1,1.71c.53,1.14.53,2.29,1,2.86s.53,1.71.53,2.85H456.55a16.82,16.82,0,0,1,2.63-6.28c1.05-1.71,3.16-2.28,5.26-2.28A7.23,7.23,0,0,1,468.13,463.32ZM456,454.19a19,19,0,0,0-6.32,4.56c-2.1,1.72-3.15,4-4.2,6.85a24.47,24.47,0,0,0-1.58,8.57,29.56,29.56,0,0,0,1.58,10.27,33.17,33.17,0,0,0,4.2,7.42c1.58,2.28,4.21,3.43,6.32,4.57a17.93,17.93,0,0,0,7.89,1.71c1.05,0,2.63-.57,4.21-.57a14.4,14.4,0,0,0,4.73-1.14,17.57,17.57,0,0,0,4.73-2.29,14.56,14.56,0,0,0,4.21-4l-3.68-4.57a2.67,2.67,0,0,0-2.1-1.14,3,3,0,0,0-2.11.57c-.52,0-1.05.57-2.1,1.14-.53.57-1.58.57-2.63,1.14a7.15,7.15,0,0,1-3.68.58c-2.63,0-4.74-.58-6.32-2.29s-2.63-4.56-3.15-8h25.25c.52,0,1.05,0,1.05-.57a2.2,2.2,0,0,0,.53-1.71V473a20.51,20.51,0,0,0-1.58-8.56,24,24,0,0,0-3.69-6.28,21.49,21.49,0,0,0-5.78-4,28.91,28.91,0,0,0-7.37-1.14C461.29,453.05,458.66,453.05,456,454.19Zm35.77,45.09h13.68v-27.4c1.57-4,4.2-5.71,7.36-5.71h3.68c.53,0,.53-.57,1.06-.57a2.05,2.05,0,0,0,.52-1.14l1.58-9.7a7,7,0,0,0-4.73-1.71c-2.64,0-4.21,1.14-6.32,2.28s-3.68,3.42-5.26,5.71l-.52-4c0-.57-.53-1.14-.53-1.71s0-1.14-.53-1.14-.52-.57-1.05-.57H491.8v45.66Zm72.59-45.66h-9.46c-1.06,0-1.58,0-2.11.57s-1.05,1.14-1.05,1.71l-5.79,20c-.52,1.71-1.05,2.85-1.58,4.56s-.52,2.86-1,4.57a19.07,19.07,0,0,1-1.05-4.57,19.12,19.12,0,0,0-1-4.56l-5.79-20c0-.57-.52-1.14-1.05-1.71s-1-.57-2.11-.57h-10l15.78,44.52h11Zm8.42,0v44.52h12.63V453.62ZM586,438.77c-.52-.57-1.05-1.71-1.58-2.28-1-.57-1.57-1.14-2.63-1.71-.52-.57-1.57-.57-2.63-.57a4.45,4.45,0,0,0-2.63.57c-.52.57-1.57,1.14-2.1,1.71a7.84,7.84,0,0,0-1.58,2.28c-.52.58-.52,1.72-.52,2.86a5.56,5.56,0,0,0,.52,2.85c.53.57,1.05,1.72,1.58,2.29s1.58,1.14,2.1,1.71,1.58.57,2.63.57a5.32,5.32,0,0,0,2.63-.57,11.07,11.07,0,0,0,2.63-1.71,7.72,7.72,0,0,0,1.58-2.29c.53-.57.53-1.71.53-2.85S586.49,439.35,586,438.77ZM629.1,459.9a14.49,14.49,0,0,0-6.31-5.14,20.34,20.34,0,0,0-8.42-1.71,21.12,21.12,0,0,0-8.94,1.71c-2.63,1.14-4.74,2.28-6.32,4.56a32,32,0,0,0-3.68,7.43,25.43,25.43,0,0,0-1.58,9.13,28.73,28.73,0,0,0,1.58,9.7,23.68,23.68,0,0,0,4.21,7.42c1.58,2.29,3.68,3.43,5.79,4.57a17.34,17.34,0,0,0,7.36,1.71c1.05,0,3.16-.57,4.21-.57a19.77,19.77,0,0,0,8.42-3.42,14.85,14.85,0,0,0,4.21-4l-3.69-4.57a2.66,2.66,0,0,0-2.1-1.14,1.84,1.84,0,0,0-1.58.57c-.53,0-1,.57-1.58,1.14s-1,.58-2.1,1.15c-.53.57-1.58.57-3.16.57a7.31,7.31,0,0,1-6.31-3.43c-1.58-2.28-2.1-5.71-2.1-9.7a19.26,19.26,0,0,1,.52-5.71,29.76,29.76,0,0,1,1.58-4,11.84,11.84,0,0,1,2.63-2.28,7.16,7.16,0,0,1,3.68-1.14,5.32,5.32,0,0,1,3.16.57c1,.57,1.58.57,2.1,1.14s1.05.57,1.58,1.14a1.84,1.84,0,0,0,1.58.57c.53,0,1-.57,1.58-.57s.52-.57,1.05-1.14Zm29.46,3.42a7.27,7.27,0,0,1,2.1,1.71c.53,1.14,1.06,1.72,1.06,2.86.52.57.52,1.71.52,2.85H647a16.5,16.5,0,0,1,2.63-6.28c1-1.71,3.15-2.28,5.26-2.28C655.93,462.18,657,462.75,658.56,463.32Zm-12.1-9.13a18.92,18.92,0,0,0-6.31,4.56c-2.11,1.72-3.16,4-4.21,6.85a24.7,24.7,0,0,0-1.58,8.57,29.8,29.8,0,0,0,1.58,10.27,32.81,32.81,0,0,0,4.21,7.42c1.58,2.28,3.68,3.43,6.31,4.57a17.93,17.93,0,0,0,7.89,1.71c1,0,2.63-.57,4.21-.57a14.28,14.28,0,0,0,4.73-1.14,17.76,17.76,0,0,0,4.74-2.29,14.68,14.68,0,0,0,4.21-4l-3.69-4.57a2.66,2.66,0,0,0-2.1-1.14,3,3,0,0,0-2.1.57c-.53,0-1.06.57-2.11,1.14-.52.57-1.58.57-2.63,1.14a7.13,7.13,0,0,1-3.68.58c-2.63,0-4.74-.58-6.31-2.29s-2.63-4.56-3.16-8h24.72c.53,0,1.06,0,1.06-.57a2.23,2.23,0,0,0,.52-1.71V473a20.36,20.36,0,0,0-1.58-8.56,24,24,0,0,0-3.68-6.28,21.65,21.65,0,0,0-5.78-4,28.91,28.91,0,0,0-7.37-1.14A29.49,29.49,0,0,0,646.46,454.19Zm66.81,34.25a4.35,4.35,0,0,1-2.11-2.29c-.52-1.14-.52-2.28-1-4-.52-1.14-.52-3.43-.52-5.71a23.43,23.43,0,0,1,.52-6.28,29.76,29.76,0,0,1,1.58-4,9.4,9.4,0,0,1,2.63-2.28,9,9,0,0,1,6.31,0,10.86,10.86,0,0,1,3.16,2.28V485l-1.58,1.71c-.52.57-1.05.57-1.58,1.15-.52,0-1.57.57-2.1.57h-5.26Zm23.15,9.7V434.21h-12.1v22.26c-1.58-1.14-2.63-2.28-4.21-2.85a14.55,14.55,0,0,0-5.26-1.15,15.76,15.76,0,0,0-7.37,1.72,13.65,13.65,0,0,0-5.26,4.56,31.72,31.72,0,0,0-3.68,7.42,47.72,47.72,0,0,0-1,9.14c0,3.42,0,7.42,1,9.7s1.58,4.57,3.16,6.85a17.46,17.46,0,0,0,4.73,4.57,10,10,0,0,0,5.79,1.71,8.31,8.31,0,0,0,3.68-.57,7.15,7.15,0,0,0,3.16-1.14c.52,0,1.57-1.14,2.63-1.71a9.77,9.77,0,0,0,2.63-2.29l1,3.43c0,.57.52,1.14,1,1.71a3,3,0,0,0,2.1.57ZM769,463.32a7.48,7.48,0,0,1,2.11,1.71c.52,1.14,1.05,1.72,1.05,2.86.52.57.52,1.71.52,2.85H757.46a16.66,16.66,0,0,1,2.63-6.28c1-1.71,3.15-2.28,5.26-2.28A7.16,7.16,0,0,1,769,463.32Zm-12.1-9.13a18.92,18.92,0,0,0-6.31,4.56c-2.11,1.72-3.16,4-4.21,6.85a24.7,24.7,0,0,0-1.58,8.57,29.8,29.8,0,0,0,1.58,10.27,32.81,32.81,0,0,0,4.21,7.42c1.58,2.28,3.68,3.43,6.31,4.57a18,18,0,0,0,7.89,1.71c1,0,2.63-.57,4.21-.57a14.39,14.39,0,0,0,4.74-1.14,17.86,17.86,0,0,0,4.73-2.29,14.56,14.56,0,0,0,4.21-4L779,485.58a2.69,2.69,0,0,0-2.11-1.14,3,3,0,0,0-2.1.57c-.53,0-1.05.57-2.11,1.14-.52.57-1.57.57-2.63,1.14a7.13,7.13,0,0,1-3.68.58c-2.63,0-4.73-.58-6.31-2.29s-2.63-4.56-3.16-8h25.25c.53,0,1.05,0,1.05-.57a2.2,2.2,0,0,0,.53-1.71V473a20.51,20.51,0,0,0-1.58-8.56,24,24,0,0,0-3.68-6.28,21.54,21.54,0,0,0-5.79-4,28.76,28.76,0,0,0-7.36-1.14A34,34,0,0,0,756.93,454.19Zm64.18,4.56a11.84,11.84,0,0,0-2.63-2.28l-3.16-1.71c-1.05-.57-2.1-.57-3.68-1.14a10.76,10.76,0,0,0-4.21-.57,24.82,24.82,0,0,0-6.84,1.14,16.06,16.06,0,0,0-5.26,2.85,8.86,8.86,0,0,0-3.15,4.57,17.69,17.69,0,0,0-1,5.14,14.49,14.49,0,0,0,1,5.13,12,12,0,0,0,2.1,3.43c1.05.57,1.58,1.71,3.16,2.28a24.42,24.42,0,0,1,3.68,1.71c1.58.57,2.63.57,3.68,1.14s2.11.58,3.16,1.15a7.27,7.27,0,0,1,2.1,1.71,3,3,0,0,1,1.06,2.28,2,2,0,0,0-.53,1.14c-.53.57-.53.57-1.05,1.15s-1,1.14-1.58,1.14a4.43,4.43,0,0,1-2.63.57,6.23,6.23,0,0,1-3.16-.57c-.52-.57-1.58-.57-2.1-1.14s-1.05-.58-1.58-1.15a3,3,0,0,0-2.1-.57c-1.06,0-1.58,0-2.11.57-.52,0-.52.57-1,1.15L790.6,493a5.4,5.4,0,0,0,2.63,2.29c1,.57,2.63,1.14,3.68,1.71a11.62,11.62,0,0,0,4.21,1.14,10.76,10.76,0,0,0,4.21.57,28.76,28.76,0,0,0,7.36-1.14,15.86,15.86,0,0,0,5.26-2.85,7.1,7.1,0,0,0,3.16-4.57,26,26,0,0,0,1-6.28,11.44,11.44,0,0,0-1-4.57,7.37,7.37,0,0,0-2.1-3.42,11.13,11.13,0,0,0-3.16-2.28,25.38,25.38,0,0,1-3.68-1.72c-1.58-.57-2.63-.57-3.68-1.14s-2.11-.57-3.16-1.14a7.48,7.48,0,0,1-2.11-1.71,4.55,4.55,0,0,1-1.05-2.29c0-1.14,0-2.28,1.05-2.85a7.23,7.23,0,0,1,3.69-1.14c1.05,0,1.58.57,2.63.57.52.57,1.05.57,2.1,1.14s1.58,1.14,2.11,1.14a1.82,1.82,0,0,0,1.57.57c.53,0,1.06-.57,1.58-.57s.53-.57,1.05-1.14Zm76.28-22.83H884.24v26.26H861.09V435.92H847.94v62.22h13.15V471.88h23.15v26.26h13.15Zm22.09,49.66c-1.57-2.28-2.1-5.14-2.1-9.7s.53-7.42,2.1-9.71c1.06-2.28,3.69-3.42,6.32-3.42,3.15,0,4.73,1.14,6.31,3.42s2.1,5.14,2.1,9.71-.52,7.42-2.1,9.7a7.53,7.53,0,0,1-12.63,0Zm-2.1-30.82c-2.63,1.14-5.26,2.28-6.84,4.56a32.88,32.88,0,0,0-4.21,7.43,30.57,30.57,0,0,0,0,19.4c1,2.86,2.11,5.71,4.21,7.42a29.39,29.39,0,0,0,6.84,4.57,21.56,21.56,0,0,0,16.83,0,26.12,26.12,0,0,0,6.32-4.57,33,33,0,0,0,4.2-7.42,28.48,28.48,0,0,0,1.58-9.7,26.24,26.24,0,0,0-1.58-9.7,24,24,0,0,0-4.2-7.43c-1.58-2.28-3.69-3.42-6.32-4.56a21.56,21.56,0,0,0-16.83,0Zm51,43.38v-32a5.34,5.34,0,0,1,2.63-2.28,6.19,6.19,0,0,1,3.15-.57A5,5,0,0,1,978.4,465c1.05.57,1.58,2.86,1.58,5.14v28h12.1v-28a7.37,7.37,0,0,1,1.58-5.14,5.72,5.72,0,0,1,4.21-1.71c3.68,0,5.26,2.28,5.26,6.85v27.4h12.1v-28a30.67,30.67,0,0,0-1.06-6.85,23.18,23.18,0,0,0-2.63-5.14c-1.57-1.71-2.63-2.85-4.73-3.42a24.54,24.54,0,0,0-6.31-1.14c-1.06,0-2.63.57-3.69.57a7.19,7.19,0,0,0-3.68,1.14A11,11,0,0,0,990,457a14.37,14.37,0,0,0-2.63,3.43c-1.06-2.29-2.11-4.57-3.69-5.71-1.58-1.71-3.68-2.29-6.31-2.29-1.05,0-2.1.58-3.16.58-1.05.57-1.57.57-2.63,1.14a11.5,11.5,0,0,0-2.63,1.71l-2.1,2.28-.53-2.28c0-.57-.52-1.14-1-1.71a3,3,0,0,0-2.1-.57h-7.37v44.52Zm69.44,0v-32a5.34,5.34,0,0,1,2.63-2.28,6.19,6.19,0,0,1,3.15-.57,5,5,0,0,1,4.21,1.71c1.05.57,1.58,2.86,1.58,5.14v28h12.1v-28a7.37,7.37,0,0,1,1.58-5.14,5.72,5.72,0,0,1,4.21-1.71c3.68,0,5.26,2.28,5.26,6.85v27.4h12.62v-28a30.65,30.65,0,0,0-1-6.85,24.07,24.07,0,0,0-2.63-5.14c-1.58-1.71-2.63-2.85-4.73-3.42a24.61,24.61,0,0,0-6.32-1.14c-1,0-2.63.57-3.68.57a7.16,7.16,0,0,0-3.68,1.14,11,11,0,0,0-3.16,2.28,14.91,14.91,0,0,0-2.63,3.43c-1-2.29-2.1-4.57-3.68-5.71-1.58-1.71-3.68-2.29-6.31-2.29-1.06,0-2.11.58-3.16.58-1.05.57-1.58.57-2.63,1.14a11.5,11.5,0,0,0-2.63,1.71l-2.11,2.28-.52-2.28c0-.57-.53-1.14-1-1.71a3,3,0,0,0-2.11-.57h-7.36v44.52Zm79.43-34.82a7.48,7.48,0,0,1,2.11,1.71c.52,1.14,1,1.72,1,2.86.52.57.52,1.71.52,2.85h-15.25a16.66,16.66,0,0,1,2.63-6.28c1.05-1.71,3.15-2.28,5.26-2.28C1114.65,462.18,1115.7,462.75,1117.28,463.32Zm-12.62-9.13a19,19,0,0,0-6.32,4.56c-2.1,1.72-3.15,4-4.2,6.85a24.47,24.47,0,0,0-1.58,8.57,29.56,29.56,0,0,0,1.58,10.27,33.17,33.17,0,0,0,4.2,7.42c1.58,2.28,3.69,3.43,6.32,4.57a17.93,17.93,0,0,0,7.89,1.71c1,0,2.63-.57,4.21-.57a14.4,14.4,0,0,0,4.73-1.14,17.57,17.57,0,0,0,4.73-2.29,14.56,14.56,0,0,0,4.21-4l-3.68-4.57a2.67,2.67,0,0,0-2.1-1.14,3,3,0,0,0-2.11.57c-.52,0-1,.57-2.1,1.14-.53.57-1.58.57-2.63,1.14a7.15,7.15,0,0,1-3.68.58c-2.64,0-4.74-.58-6.32-2.29s-2.63-4.56-3.15-8h25.25c.52,0,1,0,1-.57a2.2,2.2,0,0,0,.53-1.71V473a20.51,20.51,0,0,0-1.58-8.56,24.28,24.28,0,0,0-3.69-6.28,21.49,21.49,0,0,0-5.78-4,28.91,28.91,0,0,0-7.37-1.14A37.89,37.89,0,0,0,1104.66,454.19Zm64.18,4.56a11.84,11.84,0,0,0-2.63-2.28l-3.16-1.71c-1-.57-2.11-.57-3.68-1.14a10.76,10.76,0,0,0-4.21-.57,24.75,24.75,0,0,0-6.84,1.14,16,16,0,0,0-5.26,2.85,8.88,8.88,0,0,0-3.16,4.57,18,18,0,0,0-1.05,5.14,14.71,14.71,0,0,0,1.05,5.13,12,12,0,0,0,2.11,3.43c1,.57,1.57,1.71,3.15,2.28a25.07,25.07,0,0,1,3.69,1.71c1.57.57,2.63.57,3.68,1.14s2.1.58,3.15,1.15a7.34,7.34,0,0,1,2.11,1.71,3.07,3.07,0,0,1,1,2.28,2,2,0,0,0-.53,1.14l-1,1.15c-.52.57-1,1.14-1.58,1.14a4.42,4.42,0,0,1-2.63.57,6.19,6.19,0,0,1-3.15-.57c-.53-.57-1.58-.57-2.11-1.14s-1-.58-1.58-1.15a3,3,0,0,0-2.1-.57c-1,0-1.58,0-2.1.57-.53,0-.53.57-1.06,1.15l-2.63,5.13a5.4,5.4,0,0,0,2.63,2.29c1.06.57,2.63,1.14,3.69,1.71a11.57,11.57,0,0,0,4.21,1.14,10.71,10.71,0,0,0,4.2.57,28.91,28.91,0,0,0,7.37-1.14,16.06,16.06,0,0,0,5.26-2.85,7.1,7.1,0,0,0,3.16-4.57,26.44,26.44,0,0,0,1.05-6.28,11.62,11.62,0,0,0-1.05-4.57,7.38,7.38,0,0,0-2.11-3.42,10.86,10.86,0,0,0-3.16-2.28,25.89,25.89,0,0,1-3.68-1.72c-1.58-.57-2.63-.57-3.68-1.14s-2.1-.57-3.16-1.14a7.42,7.42,0,0,1-2.1-1.71,4.46,4.46,0,0,1-1-2.29c0-1.14,0-2.28,1-2.85a7.16,7.16,0,0,1,3.68-1.14c1,0,1.58.57,2.63.57.53.57,1,.57,2.11,1.14s1.57,1.14,2.1,1.14a1.84,1.84,0,0,0,1.58.57c.52,0,1-.57,1.58-.57s.52-.57,1-1.14Z" style="fill:#231f20"/><path d="M495.56,91.46a27,27,0,0,0-21.64-10.52H409c-13.19,0-25.86,9.46-29,22.09l-18.47,65.74a28.74,28.74,0,0,0,4.22,23.66A27,27,0,0,0,387.37,203h64.91c13.2,0,25.86-9.47,29-22.09l18.47-65.74A28.7,28.7,0,0,0,495.56,91.46Z"/><path d="M473.92,103.55a4.23,4.23,0,0,1,4.22,5.79l-18.47,65.74c-1.05,3.15-4.22,5.78-7.39,5.78H387.37a4.23,4.23,0,0,1-4.22-5.78l18.47-65.74c1.06-3.16,4.22-5.79,7.39-5.79h64.91" style="fill:#fd0"/></g></svg>
